<svg width="200" height="53" viewBox="0 0 200 53" fill="none" xmlns="http://www.w3.org/2000/svg">
<g id="Logo">
<g id="Group 6894">
<g id="Group 6893">
<g id="Group 6858">
<g id="3D">
<path id="Vector" d="M182.612 34.7353H179.349V24.6951H182.715C183.703 24.6951 184.551 24.8961 185.259 25.2981C185.968 25.6968 186.511 26.2704 186.889 27.0188C187.269 27.764 187.459 28.6579 187.459 29.7005C187.459 30.7463 187.268 31.6451 186.884 32.3968C186.503 33.1485 185.952 33.727 185.23 34.1323C184.508 34.5343 183.635 34.7353 182.612 34.7353ZM180.869 33.4116H182.528C183.296 33.4116 183.934 33.2678 184.443 32.9802C184.951 32.6893 185.332 32.2693 185.584 31.7203C185.837 31.1679 185.963 30.4947 185.963 29.7005C185.963 28.9128 185.837 28.2444 185.584 27.6954C185.335 27.1463 184.963 26.7296 184.467 26.4452C183.972 26.1609 183.356 26.0187 182.622 26.0187H180.869V33.4116Z" fill="url(#paint0_linear_753_16949)"/>
<path id="Vector_2" d="M173.787 34.8721C173.111 34.8721 172.507 34.7561 171.976 34.524C171.447 34.292 171.029 33.9701 170.721 33.5583C170.416 33.1432 170.251 32.6627 170.229 32.1169H171.774C171.794 32.4144 171.894 32.6725 172.074 32.8915C172.258 33.1072 172.497 33.2739 172.793 33.3916C173.088 33.5092 173.416 33.5681 173.777 33.5681C174.174 33.5681 174.525 33.4994 174.83 33.3622C175.139 33.2249 175.38 33.0337 175.554 32.7886C175.728 32.5402 175.815 32.2542 175.815 31.9306C175.815 31.594 175.728 31.2982 175.554 31.0433C175.383 30.7851 175.132 30.5825 174.801 30.4354C174.473 30.2883 174.076 30.2148 173.61 30.2148H172.758V28.9794H173.61C173.984 28.9794 174.312 28.9124 174.594 28.7784C174.879 28.6444 175.103 28.4581 175.263 28.2195C175.424 27.9776 175.504 27.6949 175.504 27.3714C175.504 27.0609 175.434 26.7913 175.293 26.5625C175.155 26.3304 174.958 26.149 174.702 26.0183C174.45 25.8876 174.151 25.8222 173.807 25.8222C173.478 25.8222 173.172 25.8827 172.886 26.0036C172.604 26.1213 172.374 26.2912 172.197 26.5134C172.02 26.7324 171.925 26.9955 171.912 27.3027H170.44C170.457 26.7602 170.617 26.283 170.922 25.8712C171.231 25.4594 171.638 25.1375 172.143 24.9054C172.648 24.6734 173.209 24.5574 173.826 24.5574C174.473 24.5574 175.03 24.6832 175.5 24.9349C175.972 25.1833 176.336 25.515 176.592 25.9301C176.851 26.3451 176.979 26.7994 176.976 27.2929C176.979 27.8551 176.822 28.3323 176.504 28.7244C176.189 29.1166 175.769 29.3797 175.244 29.5137V29.5922C175.913 29.6935 176.431 29.9582 176.799 30.3864C177.17 30.8145 177.353 31.3456 177.35 31.9797C177.353 32.532 177.199 33.0272 176.887 33.4651C176.579 33.9031 176.157 34.2479 175.623 34.4995C175.088 34.7479 174.476 34.8721 173.787 34.8721Z" fill="url(#paint1_linear_753_16949)"/>
</g>
<g id="Iamrapid">
<path id="Vector_3" d="M159.893 35.1653C158.672 35.1653 157.583 34.8548 156.625 34.2339C155.673 33.6063 154.925 32.7141 154.38 31.5571C153.842 30.3936 153.573 28.998 153.573 27.3704C153.573 25.7428 153.846 24.3505 154.39 23.1936C154.941 22.0366 155.696 21.1509 156.654 20.5364C157.612 19.922 158.698 19.6148 159.912 19.6148C160.851 19.6148 161.605 19.7717 162.176 20.0854C162.754 20.3926 163.2 20.7521 163.515 21.1639C163.836 21.5758 164.086 21.9385 164.263 22.2523H164.44V14.7908H167.383V34.8712H164.509V32.5278H164.263C164.086 32.8481 163.83 33.2141 163.495 33.626C163.167 34.0378 162.714 34.3973 162.137 34.7045C161.559 35.0117 160.811 35.1653 159.893 35.1653ZM160.542 32.6651C161.389 32.6651 162.104 32.4428 162.688 31.9983C163.279 31.5473 163.725 30.9231 164.027 30.1256C164.335 29.3281 164.489 28.4 164.489 27.341C164.489 26.2952 164.338 25.38 164.037 24.5957C163.735 23.8113 163.292 23.2001 162.708 22.7621C162.124 22.3242 161.402 22.1052 160.542 22.1052C159.656 22.1052 158.918 22.334 158.328 22.7916C157.737 23.2491 157.291 23.8734 156.989 24.6643C156.694 25.4552 156.546 26.3475 156.546 27.341C156.546 28.3477 156.697 29.253 156.999 30.057C157.301 30.861 157.747 31.4983 158.337 31.9689C158.935 32.433 159.669 32.6651 160.542 32.6651Z" fill="white"/>
<path id="Vector_4" d="M147.331 34.8707V19.8104H150.274V34.8707H147.331ZM148.817 17.4867C148.306 17.4867 147.866 17.3167 147.498 16.9768C147.137 16.6304 146.957 16.2186 146.957 15.7414C146.957 15.2577 147.137 14.8459 147.498 14.506C147.866 14.1595 148.306 13.9863 148.817 13.9863C149.329 13.9863 149.766 14.1595 150.127 14.506C150.494 14.8459 150.678 15.2577 150.678 15.7414C150.678 16.2186 150.494 16.6304 150.127 16.9768C149.766 17.3167 149.329 17.4867 148.817 17.4867Z" fill="white"/>
<path id="Vector_5" d="M130.224 40.5185V19.8106H133.098V22.252H133.344C133.515 21.9383 133.761 21.5755 134.082 21.1637C134.404 20.7519 134.85 20.3924 135.421 20.0851C135.992 19.7714 136.746 19.6145 137.685 19.6145C138.905 19.6145 139.995 19.9217 140.953 20.5362C141.911 21.1506 142.662 22.0363 143.207 23.1933C143.758 24.3503 144.034 25.7426 144.034 27.3702C144.034 28.9978 143.761 30.3933 143.217 31.5569C142.672 32.7138 141.924 33.6061 140.972 34.2336C140.021 34.8546 138.935 35.1651 137.714 35.1651C136.796 35.1651 136.044 35.0114 135.46 34.7042C134.883 34.397 134.43 34.0375 134.102 33.6257C133.774 33.2139 133.521 32.8478 133.344 32.5275H133.167V40.5185H130.224ZM133.108 27.3408C133.108 28.3997 133.262 29.3279 133.57 30.1253C133.879 30.9228 134.325 31.547 134.909 31.9981C135.493 32.4426 136.208 32.6648 137.055 32.6648C137.934 32.6648 138.669 32.4328 139.26 31.9687C139.85 31.498 140.297 30.8607 140.598 30.0567C140.907 29.2527 141.061 28.3474 141.061 27.3408C141.061 26.3472 140.91 25.4549 140.608 24.664C140.313 23.8731 139.867 23.2488 139.27 22.7913C138.679 22.3337 137.941 22.1049 137.055 22.1049C136.202 22.1049 135.48 22.3239 134.889 22.7619C134.305 23.1998 133.862 23.811 133.56 24.5954C133.259 25.3798 133.108 26.2949 133.108 27.3408Z" fill="white"/>
<path id="Vector_6" d="M118.841 35.2043C117.883 35.2043 117.017 35.0278 116.242 34.6748C115.468 34.3153 114.855 33.7956 114.402 33.1158C113.956 32.436 113.732 31.6026 113.732 30.6156C113.732 29.7658 113.896 29.0664 114.225 28.5173C114.553 27.9683 114.996 27.5336 115.553 27.2133C116.111 26.893 116.735 26.6511 117.424 26.4877C118.113 26.3243 118.815 26.2001 119.53 26.1151C120.436 26.0106 121.171 25.9256 121.735 25.8602C122.299 25.7883 122.709 25.6739 122.965 25.517C123.221 25.3602 123.349 25.1052 123.349 24.7523V24.6836C123.349 23.8273 123.106 23.1639 122.621 22.6932C122.142 22.2226 121.427 21.9873 120.475 21.9873C119.484 21.9873 118.703 22.2063 118.132 22.6442C117.568 23.0756 117.178 23.5561 116.961 24.0855L114.195 23.458C114.523 22.5429 115.002 21.8043 115.632 21.2421C116.269 20.6734 117 20.2616 117.827 20.0067C118.654 19.7452 119.524 19.6145 120.436 19.6145C121.039 19.6145 121.679 19.6864 122.355 19.8302C123.038 19.9675 123.674 20.2224 124.265 20.595C124.862 20.9676 125.351 21.5003 125.731 22.1932C126.112 22.8795 126.302 23.7718 126.302 24.8699V34.8709H123.428V32.8119H123.31C123.12 33.191 122.834 33.5636 122.454 33.9296C122.073 34.2957 121.584 34.5996 120.987 34.8415C120.39 35.0833 119.674 35.2043 118.841 35.2043ZM119.481 32.8511C120.295 32.8511 120.99 32.6909 121.568 32.3707C122.152 32.0504 122.595 31.632 122.896 31.1156C123.205 30.5927 123.359 30.0338 123.359 29.439V27.4976C123.254 27.6022 123.051 27.7003 122.749 27.7918C122.454 27.8768 122.116 27.9519 121.735 28.0173C121.354 28.0761 120.984 28.1317 120.623 28.184C120.262 28.2297 119.96 28.2689 119.717 28.3016C119.146 28.3735 118.625 28.4945 118.152 28.6644C117.686 28.8344 117.312 29.0795 117.03 29.3998C116.754 29.7135 116.616 30.1319 116.616 30.6548C116.616 31.3804 116.886 31.9294 117.424 32.302C117.962 32.6681 118.647 32.8511 119.481 32.8511Z" fill="white"/>
<path id="Vector_7" d="M103.938 34.8705V19.8102H106.783V22.2026H106.941C107.216 21.3921 107.702 20.7548 108.397 20.2907C109.1 19.82 109.894 19.5847 110.78 19.5847C110.963 19.5847 111.18 19.5913 111.429 19.6043C111.685 19.6174 111.885 19.6337 112.03 19.6534V22.4575C111.911 22.4249 111.701 22.3889 111.4 22.3497C111.098 22.3039 110.796 22.2811 110.494 22.2811C109.798 22.2811 109.178 22.4281 108.634 22.7223C108.096 23.0099 107.669 23.4119 107.354 23.9283C107.039 24.4381 106.882 25.0199 106.882 25.6736V34.8705H103.938Z" fill="white"/>
<path id="Vector_8" d="M79.4414 34.8709V19.8106H82.2664V22.2618H82.4534C82.7684 21.4317 83.2835 20.7846 83.9988 20.3205C84.7141 19.8498 85.5705 19.6145 86.5679 19.6145C87.5785 19.6145 88.425 19.8498 89.1074 20.3205C89.7965 20.7911 90.305 21.4382 90.6331 22.2618H90.7906C91.1516 21.4578 91.7257 20.8172 92.5132 20.3401C93.3007 19.8564 94.239 19.6145 95.3284 19.6145C96.6999 19.6145 97.8187 20.0426 98.6849 20.8989C99.5577 21.7552 99.9941 23.0462 99.9941 24.7719V34.8709H97.0509V25.0464C97.0509 24.0267 96.772 23.2881 96.2143 22.8305C95.6565 22.3729 94.9904 22.1442 94.2161 22.1442C93.258 22.1442 92.5132 22.4383 91.9817 23.0266C91.4501 23.6084 91.1844 24.3568 91.1844 25.2719V34.8709H88.2511V24.8601C88.2511 24.043 87.9952 23.3861 87.4833 22.8893C86.9715 22.3926 86.3054 22.1442 85.4851 22.1442C84.9274 22.1442 84.4122 22.2912 83.9398 22.5854C83.4738 22.873 83.0965 23.275 82.8078 23.7914C82.5256 24.3078 82.3845 24.9059 82.3845 25.5857V34.8709H79.4414Z" fill="white"/>
<path id="Vector_9" d="M68.0608 35.2043C67.1027 35.2043 66.2365 35.0278 65.4622 34.6748C64.6878 34.3153 64.0743 33.7956 63.6215 33.1158C63.1753 32.436 62.9521 31.6026 62.9521 30.6156C62.9521 29.7658 63.1162 29.0664 63.4443 28.5173C63.7724 27.9683 64.2154 27.5336 64.7731 27.2133C65.3309 26.893 65.9543 26.6511 66.6434 26.4877C67.3324 26.3243 68.0345 26.2001 68.7498 26.1151C69.6554 26.0106 70.3903 25.9256 70.9547 25.8602C71.519 25.7883 71.9292 25.6739 72.1851 25.517C72.441 25.3602 72.569 25.1052 72.569 24.7523V24.6836C72.569 23.8273 72.3262 23.1639 71.8406 22.6932C71.3615 22.2226 70.6463 21.9873 69.6948 21.9873C68.7039 21.9873 67.923 22.2063 67.3521 22.6442C66.7877 23.0756 66.3973 23.5561 66.1807 24.0855L63.4148 23.458C63.7429 22.5429 64.2219 21.8043 64.8519 21.2421C65.4884 20.6734 66.2201 20.2616 67.0469 20.0067C67.8738 19.7452 68.7432 19.6145 69.6554 19.6145C70.2591 19.6145 70.8989 19.6864 71.5748 19.8302C72.2573 19.9675 72.8938 20.2224 73.4844 20.595C74.0816 20.9676 74.5704 21.5003 74.951 22.1932C75.3316 22.8795 75.5219 23.7718 75.5219 24.8699V34.8709H72.6477V32.8119H72.5296C72.3393 33.191 72.0538 33.5636 71.6732 33.9296C71.2926 34.2957 70.8038 34.5996 70.2066 34.8415C69.6094 35.0833 68.8942 35.2043 68.0608 35.2043ZM68.7006 32.8511C69.5143 32.8511 70.2099 32.6909 70.7874 32.3707C71.3714 32.0504 71.8143 31.632 72.1162 31.1156C72.4246 30.5927 72.5788 30.0338 72.5788 29.439V27.4976C72.4738 27.6022 72.2704 27.7003 71.9685 27.7918C71.6732 27.8768 71.3353 27.9519 70.9547 28.0173C70.5741 28.0761 70.2033 28.1317 69.8424 28.184C69.4815 28.2297 69.1796 28.2689 68.9368 28.3016C68.3659 28.3735 67.8442 28.4945 67.3718 28.6644C66.9058 28.8344 66.5318 29.0795 66.2496 29.3998C65.974 29.7135 65.8362 30.1319 65.8362 30.6548C65.8362 31.3804 66.1053 31.9294 66.6434 32.302C67.1815 32.6681 67.8672 32.8511 68.7006 32.8511Z" fill="white"/>
<path id="Vector_10" d="M59.7076 15.0007V35.0811H56.666V15.0007H59.7076Z" fill="white"/>
</g>
<g id="Icon">
<path id="Vector_11" d="M27.3177 40.5195L12.5869 33.9744L30.6452 26.0321L48.4816 33.9973L33.7225 40.5195H27.3177Z" fill="#FFBCB9"/>
<path id="Vector_12" d="M12.5852 30.5859L12.5383 30.4898C12.4988 30.5071 12.4736 30.5446 12.4736 30.5857C12.4736 30.6267 12.4986 30.6642 12.5379 30.6817L12.5852 30.5859ZM27.3159 37.131L27.2687 37.2269C27.2836 37.2334 27.2997 37.2368 27.3159 37.2368V37.131ZM33.7207 37.131V37.2368C33.737 37.2368 33.7531 37.2336 33.7678 37.2271L33.7207 37.131ZM48.4801 30.6089L48.5271 30.7048C48.5664 30.6875 48.5914 30.6502 48.5916 30.6091C48.5916 30.5679 48.5666 30.5306 48.5276 30.5131L48.4801 30.6089ZM30.6437 22.6438L30.691 22.5481C30.6613 22.5346 30.6268 22.5346 30.5966 22.5477L30.6437 22.6438ZM12.5379 30.6817L12.6403 30.7272L12.7348 30.5355L12.6324 30.49L12.5379 30.6817ZM13.2539 30.9998L13.4586 31.0908L13.5532 30.8991L13.3485 30.8083L13.2539 30.9998ZM14.0723 31.3634L14.2768 31.4544L14.3716 31.2627L14.1668 31.1719L14.0723 31.3634ZM14.8907 31.7272L15.0952 31.818L15.19 31.6265L14.9852 31.5355L14.8907 31.7272ZM15.709 32.0908L15.9136 32.1816L16.0084 31.99L15.8036 31.899L15.709 32.0908ZM16.5274 32.4544L16.732 32.5454L16.8266 32.3536L16.622 32.2626L16.5274 32.4544ZM17.3458 32.8179L17.5504 32.9089L17.6449 32.7172L17.4404 32.6264L17.3458 32.8179ZM18.1642 33.1815L18.3688 33.2725L18.4633 33.0808L18.2588 32.99L18.1642 33.1815ZM18.9826 33.5453L19.1871 33.6361L19.2817 33.4446L19.0772 33.3536L18.9826 33.5453ZM19.801 33.9089L20.0055 33.9997L20.1001 33.8082L19.8956 33.7172L19.801 33.9089ZM20.6194 34.2725L20.8239 34.3635L20.9185 34.1718L20.714 34.0808L20.6194 34.2725ZM21.4378 34.6361L21.6423 34.7271L21.7369 34.5353L21.5323 34.4445L21.4378 34.6361ZM22.2562 34.9997L22.4607 35.0907L22.5553 34.8989L22.3507 34.8081L22.2562 34.9997ZM23.0746 35.3635L23.2791 35.4542L23.3737 35.2625L23.1691 35.1717L23.0746 35.3635ZM23.8929 35.727L24.0975 35.8178L24.1921 35.6263L23.9875 35.5353L23.8929 35.727ZM24.7113 36.0906L24.9159 36.1814L25.0104 35.9899L24.8059 35.8989L24.7113 36.0906ZM25.5297 36.4542L25.7343 36.5452L25.8288 36.3535L25.6243 36.2627L25.5297 36.4542ZM26.3481 36.8178L26.5526 36.9088L26.6472 36.717L26.4427 36.6263L26.3481 36.8178ZM27.1665 37.1816L27.2687 37.2269L27.3632 37.0353L27.2611 36.9898L27.1665 37.1816ZM27.3159 37.2368H27.4304V37.0252H27.3159V37.2368ZM28.1167 37.2368H28.3453V37.0252H28.1167V37.2368ZM29.0317 37.2368H29.2603V37.0252H29.0317V37.2368ZM29.9467 37.2368H30.1753V37.0252H29.9467V37.2368ZM30.8614 37.2368H31.0903V37.0252H30.8614V37.2368ZM31.7764 37.2368H32.0052V37.0252H31.7764V37.2368ZM32.6913 37.2368H32.9202V37.0252H32.6913V37.2368ZM33.6063 37.2368H33.7207V37.0252H33.6063V37.2368ZM33.7678 37.2271L33.8704 37.1818L33.7763 36.9898L33.6737 37.0351L33.7678 37.2271ZM34.4854 36.9101L34.6904 36.8195L34.5962 36.6275L34.3913 36.7181L34.4854 36.9101ZM35.3053 36.5475L35.5103 36.457L35.4162 36.2652L35.2112 36.3558L35.3053 36.5475ZM36.1253 36.1852L36.3303 36.0946L36.2361 35.9029L36.0312 35.9935L36.1253 36.1852ZM36.9452 35.8229L37.1502 35.7323L37.0561 35.5406L36.8511 35.6312L36.9452 35.8229ZM37.7652 35.4606L37.9702 35.37L37.876 35.1781L37.6711 35.2686L37.7652 35.4606ZM38.5851 35.0983L38.7901 35.0077L38.696 34.8157L38.491 34.9063L38.5851 35.0983ZM39.4051 34.736L39.6101 34.6454L39.5159 34.4534L39.311 34.544L39.4051 34.736ZM40.225 34.3734L40.43 34.2829L40.3359 34.0911L40.1309 34.1817L40.225 34.3734ZM41.045 34.0111L41.25 33.9205L41.1558 33.7288L40.9509 33.8194L41.045 34.0111ZM41.8649 33.6488L42.0699 33.5582L41.9758 33.3665L41.7708 33.4571L41.8649 33.6488ZM42.6849 33.2865L42.8899 33.1959L42.7957 33.004L42.5908 33.0945L42.6849 33.2865ZM43.5048 32.9242L43.7098 32.8336L43.6157 32.6417L43.4107 32.7322L43.5048 32.9242ZM44.3248 32.5619L44.5298 32.4713L44.4356 32.2793L44.2307 32.3699L44.3248 32.5619ZM45.1447 32.1993L45.3497 32.1088L45.2556 31.917L45.0506 32.0076L45.1447 32.1993ZM45.9647 31.837L46.1697 31.7465L46.0756 31.5547L45.8706 31.6453L45.9647 31.837ZM46.7846 31.4747L46.9896 31.3841L46.8955 31.1924L46.6905 31.283L46.7846 31.4747ZM47.6046 31.1124L47.8096 31.0218L47.7155 30.8299L47.5105 30.9205L47.6046 31.1124ZM48.4245 30.7501L48.5271 30.7048L48.4328 30.5129L48.3304 30.5581L48.4245 30.7501ZM48.5276 30.5131L48.4261 30.4678L48.3311 30.6593L48.4326 30.7046L48.5276 30.5131ZM47.8181 30.1963L47.6153 30.1059L47.5205 30.2972L47.723 30.3878L47.8181 30.1963ZM47.0073 29.8342L46.8047 29.7438L46.7097 29.9353L46.9124 30.0257L47.0073 29.8342ZM46.1967 29.4723L45.9939 29.3817L45.8989 29.5732L46.1016 29.6636L46.1967 29.4723ZM45.3859 29.1102L45.1831 29.0196L45.0881 29.2111L45.2908 29.3017L45.3859 29.1102ZM44.5751 28.7481L44.3725 28.6575L44.2775 28.849L44.48 28.9396L44.5751 28.7481ZM43.7642 28.386L43.5617 28.2956L43.4667 28.4871L43.6695 28.5775L43.7642 28.386ZM42.9537 28.0241L42.7509 27.9335L42.6559 28.125L42.8586 28.2154L42.9537 28.0241ZM42.1429 27.662L41.9401 27.5714L41.8451 27.7629L42.0478 27.8535L42.1429 27.662ZM41.3321 27.2999L41.1295 27.2093L41.0345 27.4008L41.237 27.4914L41.3321 27.2999ZM40.5215 26.9378L40.3187 26.8474L40.2237 27.0389L40.4265 27.1293L40.5215 26.9378ZM39.7107 26.5759L39.5079 26.4853L39.4129 26.6768L39.6156 26.7672L39.7107 26.5759ZM38.8999 26.2138L38.6971 26.1232L38.6023 26.3147L38.8048 26.4053L38.8999 26.2138ZM38.0891 25.8517L37.8865 25.7611L37.7915 25.9526L37.9943 26.0432L38.0891 25.8517ZM37.2785 25.4896L37.0757 25.3992L36.9807 25.5905L37.1835 25.6811L37.2785 25.4896ZM36.4677 25.1277L36.2649 25.0371L36.1699 25.2286L36.3727 25.319L36.4677 25.1277ZM35.6569 24.7656L35.4541 24.675L35.3593 24.8665L35.5618 24.9571L35.6569 24.7656ZM34.8461 24.4035L34.6435 24.3129L34.5485 24.5044L34.7513 24.595L34.8461 24.4035ZM34.0355 24.0414L33.8327 23.951L33.7377 24.1423L33.9405 24.2329L34.0355 24.0414ZM33.2247 23.6795L33.0219 23.5889L32.9269 23.7804L33.1297 23.8708L33.2247 23.6795ZM32.4139 23.3174L32.2113 23.2268L32.1163 23.4183L32.3188 23.5089L32.4139 23.3174ZM31.6033 22.9553L31.4005 22.8647L31.3055 23.0562L31.5083 23.1468L31.6033 22.9553ZM30.7925 22.5932L30.691 22.5481L30.5962 22.7394L30.6975 22.7847L30.7925 22.5932ZM30.5966 22.5477L30.494 22.593L30.5879 22.7849L30.6905 22.7398L30.5966 22.5477ZM29.8784 22.8636L29.6732 22.9538L29.7671 23.146L29.9723 23.0556L29.8784 22.8636ZM29.0576 23.2247L28.8523 23.3148L28.9463 23.5068L29.1515 23.4166L29.0576 23.2247ZM28.2367 23.5857L28.0315 23.6759L28.1254 23.8678L28.3306 23.7777L28.2367 23.5857ZM27.4159 23.9466L27.2107 24.0369L27.3046 24.2289L27.5098 24.1387L27.4159 23.9466ZM26.595 24.3076L26.3898 24.398L26.4837 24.5899L26.6889 24.4996L26.595 24.3076ZM25.7742 24.6686L25.569 24.7588L25.6629 24.951L25.8681 24.8606L25.7742 24.6686ZM24.9533 25.0297L24.7481 25.1198L24.842 25.312L25.0472 25.2216L24.9533 25.0297ZM24.1325 25.3907L23.9273 25.4809L24.0212 25.6728L24.2264 25.5827L24.1325 25.3907ZM23.3117 25.7516L23.1064 25.8419L23.2004 26.0339L23.4056 25.9437L23.3117 25.7516ZM22.4908 26.1126L22.2856 26.203L22.3795 26.3949L22.5847 26.3048L22.4908 26.1126ZM21.67 26.4737L21.4648 26.564L21.5587 26.756L21.7639 26.6656L21.67 26.4737ZM20.8491 26.8347L20.6441 26.9249L20.7378 27.117L20.943 27.0266L20.8491 26.8347ZM20.0285 27.1957L19.8233 27.2859L19.917 27.4778L20.1222 27.3877L20.0285 27.1957ZM19.2077 27.5568L19.0025 27.6469L19.0961 27.8389L19.3014 27.7487L19.2077 27.5568ZM18.3868 27.9176L18.1816 28.008L18.2753 28.1999L18.4805 28.1098L18.3868 27.9176ZM17.566 28.2787L17.3608 28.369L17.4545 28.561L17.6597 28.4706L17.566 28.2787ZM16.7451 28.6397L16.5399 28.7299L16.6336 28.922L16.8388 28.8317L16.7451 28.6397ZM15.9243 29.0007L15.7191 29.0909L15.8128 29.2831L16.018 29.1927L15.9243 29.0007ZM15.1035 29.3618L14.8982 29.4519L14.9919 29.6439L15.1971 29.5537L15.1035 29.3618ZM14.2826 29.7228L14.0774 29.813L14.1711 30.0049L14.3763 29.9148L14.2826 29.7228ZM13.4618 30.0837L13.2566 30.174L13.3502 30.366L13.5555 30.2758L13.4618 30.0837ZM12.6409 30.4447L12.5383 30.4898L12.632 30.6819L12.7346 30.6367L12.6409 30.4447Z" fill="white"/>
<path id="Vector_13" d="M27.3411 33.7417L12.6104 27.1966L30.6687 19.2542L48.5051 27.2194L33.7459 33.7417H27.3411Z" fill="#FF8A85"/>
<path id="Vector_14" d="M12.5852 23.808L12.5383 23.712C12.4988 23.7293 12.4736 23.7668 12.4736 23.8078C12.4736 23.8489 12.4986 23.8863 12.5379 23.9039L12.5852 23.808ZM27.3159 30.3532L27.2687 30.449C27.2836 30.4556 27.2997 30.459 27.3159 30.459V30.3532ZM33.7208 30.3532V30.459C33.737 30.459 33.7531 30.4558 33.7678 30.4492L33.7208 30.3532ZM48.4801 23.8311L48.5271 23.927C48.5664 23.9096 48.5914 23.8724 48.5916 23.8313C48.5916 23.79 48.5666 23.7528 48.5276 23.7352L48.4801 23.8311ZM30.6437 15.8659L30.691 15.7703C30.6613 15.7567 30.6268 15.7567 30.5966 15.7698L30.6437 15.8659ZM12.5379 23.9039L12.6403 23.9494L12.7348 23.7577L12.6324 23.7122L12.5379 23.9039ZM13.2539 24.222L13.4586 24.313L13.5532 24.1212L13.3485 24.0305L13.2539 24.222ZM14.0723 24.5856L14.2768 24.6766L14.3716 24.4848L14.1668 24.394L14.0723 24.5856ZM14.8907 24.9494L15.0952 25.0402L15.19 24.8486L14.9852 24.7576L14.8907 24.9494ZM15.709 25.3129L15.9136 25.4037L16.0084 25.2122L15.8036 25.1212L15.709 25.3129ZM16.5274 25.6765L16.732 25.7675L16.8266 25.5758L16.622 25.4848L16.5274 25.6765ZM17.3458 26.0401L17.5504 26.1311L17.6449 25.9394L17.4404 25.8486L17.3458 26.0401ZM18.1642 26.4037L18.3688 26.4947L18.4633 26.303L18.2588 26.2122L18.1642 26.4037ZM18.9826 26.7675L19.1871 26.8583L19.2817 26.6668L19.0772 26.5758L18.9826 26.7675ZM19.801 27.1311L20.0055 27.2219L20.1001 27.0303L19.8956 26.9393L19.801 27.1311ZM20.6194 27.4947L20.8239 27.5857L20.9185 27.3939L20.714 27.3029L20.6194 27.4947ZM21.4378 27.8582L21.6423 27.9492L21.7369 27.7575L21.5323 27.6667L21.4378 27.8582ZM22.2562 28.2218L22.4607 28.3128L22.5553 28.1211L22.3507 28.0303L22.2562 28.2218ZM23.0746 28.5856L23.2791 28.6764L23.3737 28.4847L23.1691 28.3939L23.0746 28.5856ZM23.8929 28.9492L24.0975 29.04L24.1921 28.8485L23.9875 28.7575L23.8929 28.9492ZM24.7113 29.3128L24.9159 29.4036L25.0104 29.2121L24.8059 29.121L24.7113 29.3128ZM25.5297 29.6764L25.7343 29.7674L25.8288 29.5756L25.6243 29.4848L25.5297 29.6764ZM26.3481 30.04L26.5526 30.131L26.6472 29.9392L26.4427 29.8484L26.3481 30.04ZM27.1665 30.4037L27.2687 30.449L27.3632 30.2575L27.2611 30.212L27.1665 30.4037ZM27.3159 30.459H27.4304V30.2474H27.3159V30.459ZM28.1167 30.459H28.3453V30.2474H28.1167V30.459ZM29.0317 30.459H29.2603V30.2474H29.0317V30.459ZM29.9467 30.459H30.1753V30.2474H29.9467V30.459ZM30.8614 30.459H31.0903V30.2474H30.8614V30.459ZM31.7764 30.459H32.0052V30.2474H31.7764V30.459ZM32.6914 30.459H32.9202V30.2474H32.6914V30.459ZM33.6063 30.459H33.7208V30.2474H33.6063V30.459ZM33.7678 30.4492L33.8704 30.404L33.7763 30.212L33.6737 30.2573L33.7678 30.4492ZM34.4854 30.1322L34.6904 30.0416L34.5962 29.8497L34.3913 29.9403L34.4854 30.1322ZM35.3053 29.7697L35.5103 29.6791L35.4162 29.4874L35.2112 29.578L35.3053 29.7697ZM36.1253 29.4074L36.3303 29.3168L36.2361 29.1251L36.0312 29.2156L36.1253 29.4074ZM36.9452 29.0451L37.1502 28.9545L37.0561 28.7628L36.8511 28.8533L36.9452 29.0451ZM37.7652 28.6828L37.9702 28.5922L37.876 28.4002L37.6711 28.4908L37.7652 28.6828ZM38.5851 28.3204L38.7901 28.2299L38.696 28.0379L38.491 28.1285L38.5851 28.3204ZM39.4051 27.9581L39.6101 27.8676L39.5159 27.6756L39.311 27.7662L39.4051 27.9581ZM40.225 27.5956L40.43 27.505L40.3359 27.3133L40.1309 27.4039L40.225 27.5956ZM41.045 27.2333L41.25 27.1427L41.1558 26.951L40.9509 27.0416L41.045 27.2333ZM41.8649 26.871L42.0699 26.7804L41.9758 26.5887L41.7708 26.6792L41.8649 26.871ZM42.6849 26.5087L42.8899 26.4181L42.7957 26.2261L42.5908 26.3167L42.6849 26.5087ZM43.5048 26.1464L43.7098 26.0558L43.6157 25.8638L43.4107 25.9544L43.5048 26.1464ZM44.3248 25.784L44.5298 25.6935L44.4357 25.5015L44.2307 25.5921L44.3248 25.784ZM45.1447 25.4215L45.3497 25.3309L45.2556 25.1392L45.0506 25.2298L45.1447 25.4215ZM45.9647 25.0592L46.1697 24.9686L46.0756 24.7769L45.8706 24.8675L45.9647 25.0592ZM46.7846 24.6969L46.9896 24.6063L46.8955 24.4146L46.6905 24.5052L46.7846 24.6969ZM47.6046 24.3346L47.8096 24.244L47.7155 24.052L47.5105 24.1426L47.6046 24.3346ZM48.4245 23.9723L48.5271 23.927L48.4328 23.735L48.3304 23.7803L48.4245 23.9723ZM48.5276 23.7352L48.4261 23.6899L48.3311 23.8815L48.4326 23.9268L48.5276 23.7352ZM47.8181 23.4184L47.6153 23.3281L47.5205 23.5194L47.723 23.6099L47.8181 23.4184ZM47.0073 23.0563L46.8047 22.966L46.7097 23.1575L46.9125 23.2478L47.0073 23.0563ZM46.1967 22.6944L45.9939 22.6039L45.8989 22.7954L46.1017 22.8857L46.1967 22.6944ZM45.3859 22.3323L45.1831 22.2417L45.0881 22.4333L45.2908 22.5239L45.3859 22.3323ZM44.5751 21.9702L44.3725 21.8796L44.2775 22.0712L44.48 22.1618L44.5751 21.9702ZM43.7643 21.6081L43.5617 21.5178L43.4667 21.7093L43.6695 21.7997L43.7643 21.6081ZM42.9537 21.2462L42.7509 21.1557L42.6559 21.3472L42.8587 21.4375L42.9537 21.2462ZM42.1429 20.8841L41.9401 20.7936L41.8451 20.9851L42.0478 21.0757L42.1429 20.8841ZM41.3321 20.522L41.1295 20.4315L41.0345 20.623L41.237 20.7136L41.3321 20.522ZM40.5215 20.1599L40.3187 20.0696L40.2237 20.2611L40.4265 20.3515L40.5215 20.1599ZM39.7107 19.798L39.5079 19.7075L39.4129 19.899L39.6157 19.9894L39.7107 19.798ZM38.8999 19.4359L38.6971 19.3454L38.6023 19.5369L38.8048 19.6275L38.8999 19.4359ZM38.0891 19.0738L37.8865 18.9833L37.7915 19.1748L37.9943 19.2654L38.0891 19.0738ZM37.2785 18.7117L37.0757 18.6214L36.9807 18.8127L37.1835 18.9033L37.2785 18.7117ZM36.4677 18.3498L36.2649 18.2593L36.1699 18.4508L36.3727 18.5412L36.4677 18.3498ZM35.6569 17.9877L35.4541 17.8972L35.3593 18.0887L35.5618 18.1793L35.6569 17.9877ZM34.8461 17.6256L34.6435 17.5351L34.5485 17.7266L34.7513 17.8172L34.8461 17.6256ZM34.0355 17.2635L33.8327 17.1732L33.7377 17.3645L33.9405 17.4551L34.0355 17.2635ZM33.2247 16.9016L33.0219 16.8111L32.9269 17.0026L33.1297 17.093L33.2247 16.9016ZM32.4139 16.5395L32.2113 16.449L32.1163 16.6405L32.3188 16.7311L32.4139 16.5395ZM31.6033 16.1774L31.4005 16.0869L31.3055 16.2784L31.5083 16.369L31.6033 16.1774ZM30.7925 15.8153L30.691 15.7703L30.5962 15.9616L30.6975 16.0069L30.7925 15.8153ZM30.5966 15.7698L30.494 15.8151L30.5879 16.0071L30.6905 15.962L30.5966 15.7698ZM29.8784 16.0858L29.6732 16.176L29.7671 16.3681L29.9723 16.2778L29.8784 16.0858ZM29.0576 16.4468L28.8523 16.537L28.9463 16.729L29.1515 16.6388L29.0576 16.4468ZM28.2367 16.8079L28.0315 16.898L28.1254 17.09L28.3306 16.9998L28.2367 16.8079ZM27.4159 17.1687L27.2107 17.2591L27.3046 17.451L27.5098 17.3609L27.4159 17.1687ZM26.595 17.5298L26.3898 17.6201L26.4837 17.8121L26.6889 17.7217L26.595 17.5298ZM25.7742 17.8908L25.569 17.981L25.6629 18.1731L25.8681 18.0828L25.7742 17.8908ZM24.9533 18.2519L24.7481 18.342L24.842 18.5342L25.0473 18.4438L24.9533 18.2519ZM24.1325 18.6129L23.9273 18.7031L24.0212 18.895L24.2264 18.8049L24.1325 18.6129ZM23.3117 18.9737L23.1064 19.0641L23.2004 19.256L23.4056 19.1659L23.3117 18.9737ZM22.4908 19.3348L22.2856 19.4251L22.3795 19.6171L22.5847 19.5269L22.4908 19.3348ZM21.67 19.6958L21.4648 19.7862L21.5587 19.9781L21.7639 19.8878L21.67 19.6958ZM20.8491 20.0569L20.6441 20.147L20.7378 20.3392L20.943 20.2488L20.8491 20.0569ZM20.0285 20.4179L19.8233 20.5081L19.917 20.7L20.1222 20.6099L20.0285 20.4179ZM19.2077 20.779L19.0025 20.8691L19.0961 21.0611L19.3014 20.9709L19.2077 20.779ZM18.3868 21.1398L18.1816 21.2301L18.2753 21.4221L18.4805 21.3319L18.3868 21.1398ZM17.566 21.5008L17.3608 21.5912L17.4545 21.7831L17.6597 21.6928L17.566 21.5008ZM16.7451 21.8619L16.5399 21.952L16.6336 22.1442L16.8388 22.0538L16.7451 21.8619ZM15.9243 22.2229L15.7191 22.3131L15.8128 22.5052L16.018 22.4149L15.9243 22.2229ZM15.1035 22.584L14.8982 22.6741L14.9919 22.8661L15.1971 22.7759L15.1035 22.584ZM14.2826 22.945L14.0774 23.0352L14.1711 23.2271L14.3763 23.137L14.2826 22.945ZM13.4618 23.3058L13.2566 23.3962L13.3502 23.5882L13.5555 23.498L13.4618 23.3058ZM12.6409 23.6669L12.5383 23.712L12.632 23.9041L12.7346 23.8588L12.6409 23.6669Z" fill="white"/>
<path id="Vector_15" d="M27.5081 26.9639L12.7773 20.4187L30.8357 12.4764L48.672 20.4416L33.9129 26.9639H27.5081Z" fill="#FB5650"/>
</g>
</g>
</g>
</g>
</g>
<defs>
<linearGradient id="paint0_linear_753_16949" x1="187.563" y1="34.2582" x2="170.745" y2="24.1026" gradientUnits="userSpaceOnUse">
<stop stop-color="#FF0000"/>
<stop offset="1" stop-color="#B66DFF"/>
</linearGradient>
<linearGradient id="paint1_linear_753_16949" x1="187.562" y1="34.2578" x2="170.744" y2="24.1022" gradientUnits="userSpaceOnUse">
<stop stop-color="#FF0000" stop-opacity="0.99"/>
<stop offset="1" stop-color="#B66DFF"/>
</linearGradient>
</defs>
</svg>
